<?xml version="1.0" encoding="UTF-8"?>
<svg id="Capa_1" data-name="Capa 1" xmlns="http://www.w3.org/2000/svg" viewBox="0 0 303.61 41.3">
  <defs>
    <style>
      .cls-1 {
        fill: #2b2b2b;
      }
    </style>
  </defs>
  <g>
    <path class="cls-1" d="M18.59,3.61c5.28,0,9.34,1.34,12.19,4.03s4.27,6.78,4.27,12.29c0,2.88-.32,5.43-.96,7.66-.64,2.22-1.63,4.1-2.98,5.62-1.34,1.52-3.06,2.68-5.14,3.48-2.08.8-4.54,1.2-7.39,1.2H6.83V3.61h11.76ZM18.97,34.05c.51,0,1.15-.04,1.92-.12s1.58-.27,2.45-.58c.86-.3,1.72-.74,2.57-1.32.85-.58,1.61-1.36,2.28-2.35s1.22-2.23,1.66-3.72c.43-1.49.65-3.29.65-5.4s-.2-3.88-.6-5.5c-.4-1.62-1.06-2.99-1.97-4.13-.91-1.14-2.09-2-3.53-2.59s-3.22-.89-5.33-.89h-7.68v26.59h7.58Z"/>
    <path class="cls-1" d="M57.52,36.3c-1.86,1.41-4.19,2.11-7.01,2.11-1.98,0-3.7-.32-5.16-.96-1.46-.64-2.68-1.54-3.67-2.69-.99-1.15-1.74-2.53-2.23-4.13-.5-1.6-.78-3.34-.84-5.23,0-1.89.29-3.62.86-5.18.58-1.57,1.38-2.93,2.42-4.08,1.04-1.15,2.27-2.05,3.7-2.69,1.42-.64,2.98-.96,4.68-.96,2.21,0,4.04.46,5.5,1.37,1.46.91,2.62,2.07,3.5,3.48.88,1.41,1.49,2.94,1.82,4.61.34,1.66.47,3.25.41,4.75h-18.58c-.03,1.09.1,2.12.38,3.1s.75,1.84,1.39,2.59c.64.75,1.46,1.35,2.45,1.8.99.45,2.16.67,3.5.67,1.73,0,3.14-.4,4.25-1.2,1.1-.8,1.83-2.02,2.18-3.65h4.03c-.54,2.78-1.74,4.88-3.6,6.29ZM56.53,20.36c-.37-.86-.86-1.61-1.49-2.23s-1.36-1.12-2.21-1.49c-.85-.37-1.78-.55-2.81-.55s-2.01.18-2.86.55c-.85.37-1.58.87-2.18,1.51-.61.64-1.09,1.38-1.44,2.23-.35.85-.56,1.75-.62,2.71h14.26c-.06-.96-.28-1.87-.65-2.74Z"/>
    <path class="cls-1" d="M72.54,37.89l-9.22-24.82h4.56l6.96,20.69h.1l6.77-20.69h4.27l-9.07,24.82h-4.37Z"/>
    <path class="cls-1" d="M113.1,36.64c-2.3,1.34-5.04,2.02-8.21,2.02-2.72,0-5.1-.49-7.15-1.46s-3.76-2.3-5.14-3.96c-1.38-1.66-2.41-3.58-3.1-5.74-.69-2.16-1.03-4.41-1.03-6.74s.34-4.58,1.03-6.74c.69-2.16,1.72-4.07,3.1-5.74,1.38-1.66,3.09-2.99,5.14-3.98,2.05-.99,4.43-1.49,7.15-1.49s5.1.5,7.15,1.49c2.05.99,3.76,2.32,5.14,3.98,1.38,1.66,2.41,3.58,3.1,5.74.69,2.16,1.03,4.41,1.03,6.74,0,2.62-.43,5.12-1.3,7.49-.86,2.37-2.16,4.42-3.89,6.14l4.51,3.55-2.3,2.88-5.23-4.18ZM112.81,31.74c1.34-1.34,2.33-2.98,2.98-4.92.64-1.94.96-3.96.96-6.07,0-1.73-.22-3.43-.67-5.11-.45-1.68-1.15-3.19-2.11-4.54-.96-1.34-2.19-2.42-3.7-3.24-1.5-.82-3.3-1.22-5.38-1.22s-3.87.41-5.38,1.22c-1.5.82-2.74,1.9-3.7,3.24s-1.66,2.86-2.11,4.54c-.45,1.68-.67,3.38-.67,5.11s.22,3.43.67,5.11,1.15,3.19,2.11,4.54,2.19,2.42,3.7,3.24c1.5.82,3.29,1.22,5.38,1.22,1.63,0,3.22-.32,4.75-.96l-3.79-3.02,2.4-2.78,4.56,3.65Z"/>
    <path class="cls-1" d="M142.91,37.89v-3.94h-.1c-.86,1.54-1.97,2.66-3.31,3.38-1.34.72-2.93,1.08-4.75,1.08-1.63,0-2.99-.22-4.08-.65-1.09-.43-1.97-1.05-2.64-1.85-.67-.8-1.14-1.75-1.42-2.86-.27-1.1-.41-2.33-.41-3.67V13.07h4.08v16.8c0,1.54.45,2.75,1.34,3.65.9.9,2.13,1.34,3.7,1.34,1.25,0,2.33-.19,3.24-.58.91-.38,1.67-.93,2.28-1.63.61-.7,1.06-1.53,1.37-2.47.3-.94.46-1.98.46-3.1v-14.02h4.08v24.82h-3.84Z"/>
    <path class="cls-1" d="M170.46,36.3c-1.86,1.41-4.19,2.11-7.01,2.11-1.98,0-3.7-.32-5.16-.96s-2.68-1.54-3.67-2.69c-.99-1.15-1.74-2.53-2.23-4.13-.5-1.6-.78-3.34-.84-5.23,0-1.89.29-3.62.86-5.18.58-1.57,1.38-2.93,2.42-4.08s2.27-2.05,3.7-2.69c1.42-.64,2.98-.96,4.68-.96,2.21,0,4.04.46,5.5,1.37s2.62,2.07,3.5,3.48,1.49,2.94,1.82,4.61c.34,1.66.47,3.25.41,4.75h-18.58c-.03,1.09.1,2.12.38,3.1s.75,1.84,1.39,2.59c.64.75,1.46,1.35,2.45,1.8.99.45,2.16.67,3.5.67,1.73,0,3.14-.4,4.25-1.2,1.1-.8,1.83-2.02,2.18-3.65h4.03c-.54,2.78-1.75,4.88-3.6,6.29ZM169.48,20.36c-.37-.86-.86-1.61-1.49-2.23s-1.36-1.12-2.21-1.49c-.85-.37-1.78-.55-2.81-.55s-2.01.18-2.86.55c-.85.37-1.58.87-2.18,1.51-.61.64-1.09,1.38-1.44,2.23-.35.85-.56,1.75-.62,2.71h14.26c-.06-.96-.28-1.87-.65-2.74Z"/>
    <path class="cls-1" d="M196.23,36.3c-1.86,1.41-4.19,2.11-7.01,2.11-1.98,0-3.7-.32-5.16-.96s-2.68-1.54-3.67-2.69c-.99-1.15-1.74-2.53-2.23-4.13-.5-1.6-.78-3.34-.84-5.23,0-1.89.29-3.62.86-5.18.58-1.57,1.38-2.93,2.42-4.08s2.27-2.05,3.7-2.69c1.42-.64,2.98-.96,4.68-.96,2.21,0,4.04.46,5.5,1.37s2.62,2.07,3.5,3.48,1.49,2.94,1.82,4.61c.34,1.66.47,3.25.41,4.75h-18.58c-.03,1.09.1,2.12.38,3.1s.75,1.84,1.39,2.59c.64.75,1.46,1.35,2.45,1.8.99.45,2.16.67,3.5.67,1.73,0,3.14-.4,4.25-1.2,1.1-.8,1.83-2.02,2.18-3.65h4.03c-.54,2.78-1.75,4.88-3.6,6.29ZM195.25,20.36c-.37-.86-.86-1.61-1.49-2.23s-1.36-1.12-2.21-1.49c-.85-.37-1.78-.55-2.81-.55s-2.01.18-2.86.55c-.85.37-1.58.87-2.18,1.51-.61.64-1.09,1.38-1.44,2.23-.35.85-.56,1.75-.62,2.71h14.26c-.06-.96-.28-1.87-.65-2.74Z"/>
    <path class="cls-1" d="M208.28,13.07v3.94h.1c1.7-3.01,4.38-4.51,8.06-4.51,1.63,0,2.99.22,4.08.67,1.09.45,1.97,1.07,2.64,1.87.67.8,1.14,1.75,1.42,2.86.27,1.1.41,2.33.41,3.67v16.32h-4.08v-16.8c0-1.54-.45-2.75-1.34-3.65-.9-.9-2.13-1.34-3.7-1.34-1.25,0-2.33.19-3.24.58-.91.38-1.67.93-2.28,1.63-.61.7-1.06,1.53-1.37,2.47-.3.94-.46,1.98-.46,3.1v14.02h-4.08V13.07h3.84Z"/>
    <path class="cls-1" d="M234.25,32.34c.38.62.89,1.12,1.51,1.49.62.37,1.33.63,2.11.79.78.16,1.59.24,2.42.24.64,0,1.31-.05,2.02-.14.7-.1,1.35-.27,1.94-.53.59-.26,1.08-.63,1.46-1.13s.58-1.13.58-1.9c0-1.06-.4-1.86-1.2-2.4s-1.8-.98-3-1.32-2.5-.64-3.91-.91c-1.41-.27-2.71-.66-3.91-1.15s-2.2-1.19-3-2.09-1.2-2.14-1.2-3.74c0-1.25.28-2.32.84-3.22.56-.9,1.28-1.62,2.16-2.18.88-.56,1.87-.98,2.98-1.25,1.1-.27,2.2-.41,3.29-.41,1.41,0,2.7.12,3.89.36,1.18.24,2.23.66,3.14,1.25.91.59,1.64,1.39,2.18,2.4.54,1.01.86,2.26.96,3.77h-4.08c-.06-.8-.27-1.46-.62-1.99-.35-.53-.8-.95-1.34-1.27-.54-.32-1.14-.55-1.8-.7-.66-.14-1.32-.22-1.99-.22-.61,0-1.22.05-1.85.14-.62.1-1.19.26-1.7.5-.51.24-.93.56-1.25.96-.32.4-.48.92-.48,1.56,0,.7.25,1.29.74,1.75s1.13.85,1.9,1.15c.77.3,1.63.56,2.59.77s1.92.42,2.88.65c1.02.22,2.02.5,3,.82.98.32,1.84.74,2.59,1.27.75.53,1.36,1.19,1.82,1.99.46.8.7,1.79.7,2.98,0,1.5-.31,2.75-.94,3.74s-1.44,1.79-2.45,2.4c-1.01.61-2.14,1.03-3.41,1.27-1.26.24-2.52.36-3.77.36-1.38,0-2.69-.14-3.94-.43-1.25-.29-2.35-.76-3.31-1.42-.96-.66-1.73-1.52-2.3-2.59s-.9-2.38-.96-3.91h4.08c.03.9.24,1.66.62,2.28Z"/>
  </g>
  <path d="M298.73,17.32c.46.41.55,1.18.22,1.74l-7.97,13.26-3.05,5.07c-.19.32-.5.51-.82.51h-16.84c-.33,0-.63-.19-.82-.51l-3.05-5.07-7.97-13.26c-.33-.55-.23-1.33.22-1.74l2.05-1.83c.45-.41,1.09-.29,1.43.27l9.65,16.05c.19.32.5.51.82.51h2.78c.56,0,1.02-.56,1.02-1.24V4.84c0-.69.46-1.24,1.02-1.24h2.54c.56,0,1.02.56,1.02,1.24v26.23c0,.69.46,1.24,1.02,1.24h2.78c.33,0,.63-.19.82-.51l9.64-16.05c.33-.55.97-.67,1.43-.27l2.06,1.83Z"/>
</svg>